<?xml version="1.0" encoding="UTF-8"?>
<svg xmlns="http://www.w3.org/2000/svg" width="1400" height="360" viewBox="0 0 1400 360">
<defs>
  <linearGradient id="bg" x1="0" y1="0" x2="1400" y2="360"><stop stop-color="#05070d"/><stop offset="1" stop-color="#0d1220"/></linearGradient>
  <linearGradient id="conn" x1="0" y1="0" x2="1" y2="0"><stop stop-color="#22d3ee"/><stop offset=".5" stop-color="#8b5cf6"/><stop offset="1" stop-color="#f472b6"/></linearGradient>
</defs>
<rect x="8" y="8" width="1384" height="344" rx="30" fill="url(#bg)" stroke="#1e293b"/>
<text x="44" y="50" fill="#f8fafc" font-family="Inter,Segoe UI,Arial,sans-serif" font-size="20" font-weight="750">Where I like to work</text>
<text x="44" y="76" fill="#64748b" font-family="Inter,Segoe UI,Arial,sans-serif" font-size="13">Four intersecting areas rather than four disconnected skill lists.</text>

<g stroke="#334155" stroke-width="1.5" opacity=".8">
<path d="M260 190L520 125L790 205L1080 120L1180 235L860 285L520 270L260 190"/>
<path d="M520 125L520 270M790 205L860 285M1080 120L1180 235M260 190L520 270"/>
</g>
<g stroke="url(#conn)" stroke-width="2" stroke-linecap="round" stroke-dasharray="9 12">
<path d="M260 190L520 125"><animate attributeName="stroke-dashoffset" values="0;-120" dur="5s" repeatCount="indefinite"/></path>
<path d="M520 125L790 205"><animate attributeName="stroke-dashoffset" values="0;-120" dur="4s" repeatCount="indefinite"/></path>
<path d="M790 205L1080 120"><animate attributeName="stroke-dashoffset" values="0;-120" dur="6s" repeatCount="indefinite"/></path>
<path d="M790 205L1180 235"><animate attributeName="stroke-dashoffset" values="0;-120" dur="4.5s" repeatCount="indefinite"/></path>
</g>

<g font-family="Inter,Segoe UI,Arial,sans-serif">
<g><circle cx="260" cy="190" r="36" fill="#0f172a" stroke="#22d3ee"/><text x="260" y="186" fill="#67e8f9" font-size="11" text-anchor="middle" font-weight="700">ROBOT</text><text x="260" y="203" fill="#94a3b8" font-size="10" text-anchor="middle">VLA / IL</text></g>
<g><circle cx="520" cy="125" r="36" fill="#0f172a" stroke="#22d3ee"/><text x="520" y="121" fill="#67e8f9" font-size="11" text-anchor="middle" font-weight="700">SCIENCE</text><text x="520" y="138" fill="#94a3b8" font-size="10" text-anchor="middle">HEP / ML</text></g>
<g><circle cx="790" cy="205" r="42" fill="#0f172a" stroke="#8b5cf6" stroke-width="2"/><text x="790" y="201" fill="#c4b5fd" font-size="12" text-anchor="middle" font-weight="700">AI RELIABILITY</text><text x="790" y="220" fill="#94a3b8" font-size="10" text-anchor="middle">evaluation / agents</text></g>
<g><circle cx="1080" cy="120" r="36" fill="#0f172a" stroke="#f472b6"/><text x="1080" y="116" fill="#f9a8d4" font-size="11" text-anchor="middle" font-weight="700">SYSTEMS</text><text x="1080" y="133" fill="#94a3b8" font-size="10" text-anchor="middle">state / APIs</text></g>
<g><circle cx="1180" cy="235" r="36" fill="#0f172a" stroke="#34d399"/><text x="1180" y="231" fill="#6ee7b7" font-size="11" text-anchor="middle" font-weight="700">PRODUCT</text><text x="1180" y="248" fill="#94a3b8" font-size="10" text-anchor="middle">ship / iterate</text></g>
</g>

<g fill="#22d3ee"><circle cx="90" cy="120" r="2"><animate attributeName="opacity" values=".2;1;.2" dur="2s" repeatCount="indefinite"/></circle><circle cx="1300" cy="95" r="2"><animate attributeName="opacity" values="1;.2;1" dur="3s" repeatCount="indefinite"/></circle></g>
</svg>